<?xml version="1.0" encoding="UTF-8" standalone="no"?>
<svg width="100%" height="100%" viewBox="0 0 270 270" xmlns="http://www.w3.org/2000/svg">
  <g>
    <g transform="translate(-300,0)">
      <g>
        <animateTransform attributeName="transform" type="translate" values="0 0;310 0;295 0;300 0" keyTimes="0;0.6;0.8;1" dur="0.35s" begin="0.01s" fill="freeze"/>
        <path d="M53.294,59.651l-7.74,28.887l208.84,0c-11.937,-28.666 -47.339,-28.887 -47.339,-28.887l-153.761,0Z" fill="#000"/>
      </g>
    </g>
    <g transform="translate(-300,0)">
      <g>
        <animateTransform attributeName="transform" type="translate" values="0 0;310 0;295 0;300 0" keyTimes="0;0.6;0.8;1" dur="0.35s" begin="0.06s" fill="freeze"/>
        <path d="M61.331,100.216l-18.891,70.502l27.786,0l18.891,-70.502l-27.786,0Z" fill="#000"/>
      </g>
    </g>
    <g transform="translate(-300,0)">
      <g>
        <animateTransform attributeName="transform" type="translate" values="0 0;310 0;295 0;300 0" keyTimes="0;0.6;0.8;1" dur="0.35s" begin="0.1s" fill="freeze"/>
        <path d="M102.338,100.216l-18.891,70.502l27.786,0l18.891,-70.502l-27.786,0Z" fill="#000"/>
      </g>
    </g>
    <g transform="translate(-300,0)">
      <g>
        <animateTransform attributeName="transform" type="translate" values="0 0;310 0;295 0;300 0" keyTimes="0;0.6;0.8;1" dur="0.35s" begin="0.14s" fill="freeze"/>
        <path d="M143.347,100.216l-18.891,70.502l27.786,0l18.891,-70.502l-27.786,0Z" fill="#000"/>
      </g>
    </g>
    <g transform="translate(-300,0)">
      <g>
        <animateTransform attributeName="transform" type="translate" values="0 0;310 0;295 0;300 0" keyTimes="0;0.6;0.8;1" dur="0.35s" begin="0.18s" fill="freeze"/>
        <path d="M184.354,100.216l-18.891,70.502l27.786,0l18.891,-70.502l-27.786,0Z" fill="#000"/>
      </g>
    </g>
    <g transform="translate(-300,0)">
      <g>
        <animateTransform attributeName="transform" type="translate" values="0 0;310 0;295 0;300 0" keyTimes="0;0.6;0.8;1" dur="0.35s" begin="0.22s" fill="freeze"/>
        <path d="M225.393,100.099l-18.891,70.502l32.28,0c6.419,-9.382 11.904,-20.866 15.727,-35.134c3.823,-14.269 4.501,-25.944 3.062,-35.368l-32.178,0Z" fill="#000"/>
      </g>
    </g>
    <g transform="translate(-300,0)">
      <g>
        <animateTransform attributeName="transform" type="translate" values="0 0;310 0;295 0;300 0" keyTimes="0;0.6;0.8;1" dur="0.35s" begin="0.01s" fill="freeze"/>
        <path d="M20.405,182.395l-7.74,28.887l153.761,0c0,0 35.52,-0.22 62.819,-28.887l-208.84,0Z" fill="#000"/>
      </g>
    </g>
  </g>
</svg>
