<?xml version="1.0" encoding="UTF-8" standalone="no"?>
<!-- Created with Inkscape (http://www.inkscape.org/) -->

<svg
   width="1024"
   height="1024"
   viewBox="0 0 270.93333 270.93333"
   version="1.1"
   id="svg5"
   inkscape:version="1.4.2 (f4327f4, 2025-05-13)"
   sodipodi:docname="logo PA.svg"
   inkscape:export-filename="logo PA2.svg"
   inkscape:export-xdpi="96"
   inkscape:export-ydpi="96"
   xmlns:inkscape="http://www.inkscape.org/namespaces/inkscape"
   xmlns:sodipodi="http://sodipodi.sourceforge.net/DTD/sodipodi-0.dtd"
   xmlns="http://www.w3.org/2000/svg"
   xmlns:svg="http://www.w3.org/2000/svg">
  <sodipodi:namedview
     id="namedview7"
     pagecolor="#ffffff"
     bordercolor="#666666"
     borderopacity="1.0"
     inkscape:showpageshadow="2"
     inkscape:pageopacity="0.0"
     inkscape:pagecheckerboard="0"
     inkscape:deskcolor="#d1d1d1"
     inkscape:document-units="mm"
     showgrid="false"
     showguides="true"
     inkscape:zoom="0.2102413"
     inkscape:cx="61.833712"
     inkscape:cy="527.96477"
     inkscape:window-width="1366"
     inkscape:window-height="705"
     inkscape:window-x="-8"
     inkscape:window-y="-8"
     inkscape:window-maximized="1"
     inkscape:current-layer="layer1" />
  <defs
     id="defs2" />
  <g
     inkscape:label="Layer 1"
     inkscape:groupmode="layer"
     id="layer1"
     style="display:inline">
    <path
       id="path710"
       style="display:inline;stroke-width:0.5;stroke:#000000;fill:#000000;stroke-dasharray:none;stroke-linejoin:miter;stroke-linecap:butt"
       d="M 53.293951,59.651463 45.553805,88.538078 H 254.39408 C 242.45698,59.871796 207.05537,59.651463 207.05537,59.651463 Z m 172.099089,40.447207 -18.89101,70.50222 h 32.27994 c 6.41905,-9.38206 11.9038,-20.86562 15.72706,-35.13421 3.82326,-14.26862 4.50072,-25.94354 3.06241,-35.36801 z m -164.062124,0.11717 -18.89084,70.5016 h 27.786372 l 18.890839,-70.5016 z m 41.007534,0 -18.890852,70.5016 h 27.786352 l 18.89087,-70.5016 z m 41.00813,0 -18.89086,70.5016 h 27.78637 l 18.89086,-70.5016 z m 41.00753,0 -18.89085,70.5016 h 27.78636 l 18.89087,-70.5016 z M 20.404841,182.39525 12.664693,211.28187 H 166.42612 c 0,0 35.51969,-0.22035 62.819,-28.88662 z" />
  </g>
</svg>
